<svg xmlns="http://www.w3.org/2000/svg" viewBox="0 0 1200 630" role="img" aria-label="Tenvora — your business, clearly recorded">
  <rect width="1200" height="630" fill="#F7F1E5"/><circle cx="1050" cy="40" r="270" fill="#DCE8DC"/><circle cx="100" cy="610" r="230" fill="#F4D79C" opacity=".5"/>
  <g transform="translate(90 78) scale(1.45)"><rect x="3" y="3" width="58" height="58" rx="17" fill="#2F6F5E"/><path d="M17 14.5h24.5L49 22v27.5H17v-35Z" fill="#FFF9E9"/><path d="M41.5 14.5V22H49" fill="none" stroke="#E4A64F" stroke-width="3"/><path d="M22.5 22.5h15M30 22.5v17" stroke="#234F43" stroke-width="4" stroke-linecap="round"/></g>
  <text x="200" y="145" fill="#26352E" font-family="Segoe UI,sans-serif" font-size="58" font-weight="700">Tenvora</text>
  <text x="90" y="300" fill="#26352E" font-family="Georgia,serif" font-size="72" font-weight="700">Your business,</text><text x="90" y="385" fill="#2F6F5E" font-family="Georgia,serif" font-size="72" font-weight="700">clearly recorded.</text>
  <text x="94" y="470" fill="#68736C" font-family="Segoe UI,sans-serif" font-size="30">Sales, customers, payments, purchases and expenses—without the paperwork.</text>
  <g transform="translate(810 170) rotate(3)"><rect width="270" height="320" rx="24" fill="#FFFDF7" stroke="#D5CDBD" stroke-width="4"/><rect x="32" y="38" width="90" height="24" rx="12" fill="#F4D79C"/><path d="M32 100h206M32 148h206M32 196h206M32 244h140" stroke="#DCE0D7" stroke-width="5" stroke-linecap="round"/><circle cx="220" cy="265" r="34" fill="#DCE8DC"/><path d="m203 265 12 12 25-30" fill="none" stroke="#2F6F5E" stroke-width="8" stroke-linecap="round" stroke-linejoin="round"/></g>
</svg>
